<svg xmlns="http://www.w3.org/2000/svg" xmlns:xlink="http://www.w3.org/1999/xlink" width="153" zoomAndPan="magnify" viewBox="0 0 114.75 49.499998" height="66" preserveAspectRatio="xMidYMid meet" version="1.0"><defs><clipPath id="d77676bbef"><path d="M 40.488281 14.636719 L 73.640625 14.636719 L 73.640625 34.101562 L 40.488281 34.101562 Z M 40.488281 14.636719 " clip-rule="nonzero"/></clipPath><clipPath id="bbe106b60d"><path d="M 50.222656 14.636719 L 63.859375 14.636719 C 69.234375 14.636719 73.589844 18.996094 73.589844 24.371094 C 73.589844 29.746094 69.234375 34.101562 63.859375 34.101562 L 50.222656 34.101562 C 44.847656 34.101562 40.488281 29.746094 40.488281 24.371094 C 40.488281 18.996094 44.847656 14.636719 50.222656 14.636719 Z M 50.222656 14.636719 " clip-rule="nonzero"/></clipPath><clipPath id="e5f3f083c5"><path d="M 0.449219 9.734375 L 28.574219 9.734375 L 28.574219 19.542969 L 0.449219 19.542969 Z M 0.449219 9.734375 " clip-rule="nonzero"/></clipPath><clipPath id="2dacad9c55"><path d="M 5.355469 9.734375 L 23.636719 9.734375 C 24.9375 9.734375 26.183594 10.25 27.105469 11.167969 C 28.023438 12.089844 28.542969 13.335938 28.542969 14.636719 C 28.542969 15.9375 28.023438 17.183594 27.105469 18.105469 C 26.183594 19.023438 24.9375 19.542969 23.636719 19.542969 L 5.355469 19.542969 C 4.054688 19.542969 2.804688 19.023438 1.886719 18.105469 C 0.964844 17.183594 0.449219 15.9375 0.449219 14.636719 C 0.449219 13.335938 0.964844 12.089844 1.886719 11.167969 C 2.804688 10.25 4.054688 9.734375 5.355469 9.734375 Z M 5.355469 9.734375 " clip-rule="nonzero"/></clipPath><clipPath id="65c6131ebc"><path d="M 0.449219 29.199219 L 28.574219 29.199219 L 28.574219 39.007812 L 0.449219 39.007812 Z M 0.449219 29.199219 " clip-rule="nonzero"/></clipPath><clipPath id="2311858357"><path d="M 5.355469 29.199219 L 23.636719 29.199219 C 24.9375 29.199219 26.183594 29.714844 27.105469 30.632812 C 28.023438 31.554688 28.542969 32.800781 28.542969 34.101562 C 28.542969 35.402344 28.023438 36.648438 27.105469 37.570312 C 26.183594 38.488281 24.9375 39.007812 23.636719 39.007812 L 5.355469 39.007812 C 4.054688 39.007812 2.804688 38.488281 1.886719 37.570312 C 0.964844 36.648438 0.449219 35.402344 0.449219 34.101562 C 0.449219 32.800781 0.964844 31.554688 1.886719 30.632812 C 2.804688 29.714844 4.054688 29.199219 5.355469 29.199219 Z M 5.355469 29.199219 " clip-rule="nonzero"/></clipPath><clipPath id="1af5e27770"><path d="M 85.539062 0 L 113.660156 0 L 113.660156 9.808594 L 85.539062 9.808594 Z M 85.539062 0 " clip-rule="nonzero"/></clipPath><clipPath id="a1933f73d3"><path d="M 90.441406 0 L 108.726562 0 C 110.027344 0 111.273438 0.515625 112.191406 1.4375 C 113.113281 2.355469 113.628906 3.605469 113.628906 4.90625 C 113.628906 6.203125 113.113281 7.453125 112.191406 8.371094 C 111.273438 9.292969 110.027344 9.808594 108.726562 9.808594 L 90.441406 9.808594 C 89.140625 9.808594 87.894531 9.292969 86.976562 8.371094 C 86.054688 7.453125 85.539062 6.203125 85.539062 4.90625 C 85.539062 3.605469 86.054688 2.355469 86.976562 1.4375 C 87.894531 0.515625 89.140625 0 90.441406 0 Z M 90.441406 0 " clip-rule="nonzero"/></clipPath><clipPath id="69443262ce"><path d="M 85.539062 19.464844 L 113.660156 19.464844 L 113.660156 29.273438 L 85.539062 29.273438 Z M 85.539062 19.464844 " clip-rule="nonzero"/></clipPath><clipPath id="a2eb910334"><path d="M 90.441406 19.464844 L 108.726562 19.464844 C 110.027344 19.464844 111.273438 19.980469 112.191406 20.902344 C 113.113281 21.820312 113.628906 23.070312 113.628906 24.371094 C 113.628906 25.671875 113.113281 26.917969 112.191406 27.835938 C 111.273438 28.757812 110.027344 29.273438 108.726562 29.273438 L 90.441406 29.273438 C 89.140625 29.273438 87.894531 28.757812 86.976562 27.835938 C 86.054688 26.917969 85.539062 25.671875 85.539062 24.371094 C 85.539062 23.070312 86.054688 21.820312 86.976562 20.902344 C 87.894531 19.980469 89.140625 19.464844 90.441406 19.464844 Z M 90.441406 19.464844 " clip-rule="nonzero"/></clipPath><clipPath id="ed0f64fadb"><path d="M 85.539062 38.929688 L 113.660156 38.929688 L 113.660156 48.738281 L 85.539062 48.738281 Z M 85.539062 38.929688 " clip-rule="nonzero"/></clipPath><clipPath id="3a6420d241"><path d="M 90.441406 38.929688 L 108.726562 38.929688 C 110.027344 38.929688 111.273438 39.445312 112.191406 40.367188 C 113.113281 41.285156 113.628906 42.535156 113.628906 43.835938 C 113.628906 45.136719 113.113281 46.382812 112.191406 47.300781 C 111.273438 48.222656 110.027344 48.738281 108.726562 48.738281 L 90.441406 48.738281 C 89.140625 48.738281 87.894531 48.222656 86.976562 47.300781 C 86.054688 46.382812 85.539062 45.136719 85.539062 43.835938 C 85.539062 42.535156 86.054688 41.285156 86.976562 40.367188 C 87.894531 39.445312 89.140625 38.929688 90.441406 38.929688 Z M 90.441406 38.929688 " clip-rule="nonzero"/></clipPath></defs><g clip-path="url(#d77676bbef)"><g clip-path="url(#bbe106b60d)"><path fill="#19647e" d="M 40.488281 14.636719 L 73.566406 14.636719 L 73.566406 34.101562 L 40.488281 34.101562 Z M 40.488281 14.636719 " fill-opacity="1" fill-rule="nonzero"/></g></g><g clip-path="url(#e5f3f083c5)"><g clip-path="url(#2dacad9c55)"><path fill="#a9b232" d="M 0.449219 9.734375 L 28.535156 9.734375 L 28.535156 19.542969 L 0.449219 19.542969 Z M 0.449219 9.734375 " fill-opacity="1" fill-rule="nonzero"/></g></g><g clip-path="url(#65c6131ebc)"><g clip-path="url(#2311858357)"><path fill="#a9b232" d="M 0.449219 29.199219 L 28.535156 29.199219 L 28.535156 39.007812 L 0.449219 39.007812 Z M 0.449219 29.199219 " fill-opacity="1" fill-rule="nonzero"/></g></g><path stroke-linecap="butt" transform="matrix(0.148455, 0, 0, 0.148455, 28.541271, 14.339946)" fill="none" stroke-linejoin="miter" d="M 0.0114358 1.999078 L 20.114356 1.999078 C 25.455839 1.999078 30.58682 4.130408 34.34954 7.893128 C 38.112259 11.655847 40.24359 16.786828 40.24359 22.128311 L 40.24359 47.441151 C 40.24359 58.54512 49.242541 67.570384 60.372823 67.570384 L 80.475744 67.570384 " stroke="#495159" stroke-width="4" stroke-opacity="1" stroke-miterlimit="4"/><path stroke-linecap="butt" transform="matrix(0.148455, 0, 0, 0.148455, 28.541271, 24.072501)" fill="none" stroke-linejoin="miter" d="M 0.0114358 67.556333 L 20.114356 67.556333 C 25.455839 67.556333 30.58682 65.451315 34.34954 61.662282 C 38.112259 57.899563 40.24359 52.768582 40.24359 47.427099 L 40.24359 22.114259 C 40.24359 11.01029 49.242541 2.011339 60.372823 2.011339 L 80.475744 2.011339 " stroke="#495159" stroke-width="4" stroke-opacity="1" stroke-miterlimit="4"/><g clip-path="url(#1af5e27770)"><g clip-path="url(#a1933f73d3)"><path fill="#a9b232" d="M 85.539062 0 L 113.625 0 L 113.625 9.808594 L 85.539062 9.808594 Z M 85.539062 0 " fill-opacity="1" fill-rule="nonzero"/></g></g><g clip-path="url(#69443262ce)"><g clip-path="url(#a2eb910334)"><path fill="#a9b232" d="M 85.539062 19.464844 L 113.625 19.464844 L 113.625 29.273438 L 85.539062 29.273438 Z M 85.539062 19.464844 " fill-opacity="1" fill-rule="nonzero"/></g></g><g clip-path="url(#ed0f64fadb)"><g clip-path="url(#3a6420d241)"><path fill="#a9b232" d="M 85.539062 38.929688 L 113.625 38.929688 L 113.625 48.738281 L 85.539062 48.738281 Z M 85.539062 38.929688 " fill-opacity="1" fill-rule="nonzero"/></g></g><path stroke-linecap="butt" transform="matrix(0.148455, 0, 0, 0.148455, 73.589989, 4.607392)" fill="none" stroke-linejoin="miter" d="M 80.489645 2.013121 L 60.360412 2.013121 C 55.018929 2.013121 49.91426 4.118139 46.125228 7.880859 C 42.362509 11.669891 40.231178 16.774559 40.231178 22.116042 L 40.231178 113.000188 C 40.231178 118.341671 38.12616 123.446339 34.337128 127.235371 C 30.574409 130.998091 25.46974 133.129421 20.128258 133.129421 L -0.000975688 133.129421 " stroke="#495159" stroke-width="4" stroke-opacity="1" stroke-miterlimit="4"/><path stroke-linecap="butt" transform="matrix(0.148455, 0, 0, 0.148455, 73.589989, 24.072501)" fill="none" stroke-linejoin="miter" d="M 80.489645 133.127639 L 60.360412 133.127639 C 55.018929 133.127639 49.91426 130.996308 46.125228 127.233589 C 42.362509 123.444557 40.231178 118.339888 40.231178 112.998406 L 40.231178 22.114259 C 40.231178 16.772777 38.12616 11.668108 34.337128 7.905389 C 30.574409 4.116357 25.46974 2.011339 20.128258 2.011339 L -0.000975688 2.011339 " stroke="#495159" stroke-width="4" stroke-opacity="1" stroke-miterlimit="4"/><path stroke-linecap="butt" transform="matrix(0.148455, 0, 0, 0.148455, 73.589989, 24.072501)" fill="none" stroke-linejoin="miter" d="M 80.489645 2.011339 L -0.000975688 2.011339 " stroke="#495159" stroke-width="4" stroke-opacity="1" stroke-miterlimit="4"/></svg>